<?xml version="1.0" encoding="UTF-8" standalone="no"?>
<!--
Source: https://clipart.me/animals-wildlife/manchester-bee-vector-logo-22926
Converted to SVG with: https://cloudconvert.com/
Cleaned with: https://jsfiddle.net/alexanderby/31nmr8f7/
-->

<svg
   version="1.1"
   id="svg2"
   xml:space="preserve"
   width="552.38666"
   height="368.25333"
   viewBox="0 0 552.38666 368.25333"
   xmlns="http://www.w3.org/2000/svg"
   xmlns:svg="http://www.w3.org/2000/svg"><defs
     id="defs6" /><g
     id="g8"
     transform="matrix(1.3333333,0,0,-1.3333333,0,368.25333)"><g
       id="g10"
       transform="scale(0.1)"><path
         d="M 4142.86,1380.95 C 4142.86,618.27 3215.45,0 2071.43,0 927.402,0 0,618.27 0,1380.95 0,2143.63 927.402,2761.9 2071.43,2761.9 c 1144.02,0 2071.43,-618.27 2071.43,-1380.95"
         style="fill:#ffc000;fill-opacity:1;fill-rule:nonzero;stroke:none"
         id="path12" /><path
         d="m 3360,1278.9 c -55.55,0 -139.88,15.85 -196.95,48.36 -32.55,17.57 -112.53,75.57 -178.4,126.75 l -412.69,320.53 v 362.81 h 756.55 c 292.29,0 458.81,-207.3 458.81,-429.71 0,-244.17 -195.46,-428.74 -427.32,-428.74 z m -30.83,960.82 h -862.23 v -509.86 l 450.86,-350.89 c 82.6,-64.29 173.28,-128.76 196.87,-142.22 73.82,-42.17 166.05,-63.54 248.95,-63.54 304.66,0 528.71,242.81 528.71,538.06 0,279.41 -213.54,528.45 -563.16,528.45"
         style="fill:#000000;fill-opacity:1;fill-rule:nonzero;stroke:none"
         id="path14" /><path
         d="m 1569.84,1336.92 h 1001.75 c -13.17,92.27 -28.98,166.09 -76.43,247.82 h -854.13 c -36.92,-84.37 -60.65,-160.82 -71.19,-247.82"
         style="fill:#000000;fill-opacity:1;fill-rule:nonzero;stroke:none"
         id="path16" /><path
         d="m 1556.67,1202.48 c -5.27,-79.1 0,-171.36 10.54,-247.82 h 1004.38 c 13.19,81.73 15.83,168.72 10.56,247.82 H 1556.67"
         style="fill:#000000;fill-opacity:1;fill-rule:nonzero;stroke:none"
         id="path18" /><path
         d="m 2070.71,63.6289 c 0,0 250.46,284.7031 308.44,374.3321 h -616.86 c 55.36,-86.992 308.42,-374.3321 308.42,-374.3321"
         style="fill:#000000;fill-opacity:1;fill-rule:nonzero;stroke:none"
         id="path20" /><path
         d="m 1680.56,572.422 h 782.95 c 36.91,73.816 65.91,160.808 87.01,247.797 h -959.59 c 15.82,-81.731 47.46,-173.981 89.63,-247.797"
         style="fill:#000000;fill-opacity:1;fill-rule:nonzero;stroke:none"
         id="path22" /><path
         d="m 1811.96,2239.72 v -520.54 h 520.56 v 520.54 h -520.56"
         style="fill:#000000;fill-opacity:1;fill-rule:nonzero;stroke:none"
         id="path24" /><path
         d="m 2072.25,2694.48 c -176.57,0 -319.72,-143.16 -319.72,-319.7 h 639.43 c 0,176.54 -143.13,319.7 -319.71,319.7"
         style="fill:#000000;fill-opacity:1;fill-rule:nonzero;stroke:none"
         id="path26" /><path
         d="m 1572.92,1774.54 -412.68,-320.53 c -65.89,-51.18 -145.85,-109.18 -178.424,-126.75 -57.054,-32.51 -141.406,-48.36 -196.957,-48.36 -231.851,0 -427.3,184.57 -427.3,428.74 0,222.41 168.339,429.71 458.808,429.71 h 756.553 z m 105.01,465.18 H 815.719 c -347.797,0 -563.192,-249.04 -563.192,-528.45 0,-295.25 224.082,-538.06 528.719,-538.06 82.891,0 175.145,21.37 248.964,63.54 23.57,13.46 114.27,77.93 196.86,142.22 l 450.86,350.89 v 509.86"
         style="fill:#000000;fill-opacity:1;fill-rule:nonzero;stroke:none"
         id="path28" /></g></g></svg>
